<?xml version="1.0" standalone="no"?>
<!DOCTYPE svg PUBLIC "-//W3C//DTD SVG 20010904//EN"
 "http://www.w3.org/TR/2001/REC-SVG-20010904/DTD/svg10.dtd">
<svg version="1.0" xmlns="http://www.w3.org/2000/svg"
 width="1000.000000pt" height="1000.000000pt" viewBox="0 0 1000.000000 1000.000000"
 preserveAspectRatio="xMidYMid meet">

<g transform="translate(0.000000,1000.000000) scale(0.100000,-0.100000)"
fill="#000000" stroke="none">
<path d="M4705 9034 c-1263 -103 -2372 -753 -3074 -1802 -701 -1048 -866
-2410 -435 -3600 509 -1407 1746 -2416 3224 -2631 1882 -274 3699 803 4369
2591 181 484 261 973 248 1518 -22 903 -323 1717 -901 2440 -112 140 -393 427
-531 542 -533 445 -1172 750 -1840 878 -254 48 -397 61 -710 65 -165 1 -322 1
-350 -1z m695 -689 c1134 -143 2105 -828 2616 -1847 178 -355 286 -727 336
-1153 18 -159 15 -568 -5 -735 -78 -620 -318 -1204 -688 -1676 l-52 -66 -2369
2369 -2369 2368 38 33 c21 17 87 67 147 109 519 366 1082 566 1741 617 104 8
485 -4 605 -19z m1720 -5960 c-5 -6 -60 -48 -124 -95 -320 -235 -685 -416
-1056 -524 -323 -93 -576 -128 -930 -129 -354 -1 -617 34 -930 124 -809 232
-1489 745 -1943 1466 -88 140 -233 435 -291 589 -253 683 -282 1409 -85 2107
114 402 330 827 582 1145 l50 64 2368 -2368 c1539 -1539 2365 -2372 2359
-2379z"/>
<path d="M5626 7644 c-256 -62 -446 -338 -522 -759 -27 -153 -26 -434 4 -583
54 -269 129 -414 319 -616 63 -67 114 -132 131 -166 25 -50 27 -67 30 -190 2
-74 -1 -170 -5 -212 l-9 -77 184 -183 184 -183 -6 70 c-3 39 -15 156 -26 260
-23 224 -26 403 -6 467 18 61 56 113 168 235 173 185 243 324 300 587 29 137
31 450 4 600 -98 536 -397 836 -750 750z"/>
<path d="M3642 7572 c-16 -16 -20 -42 -25 -178 -4 -87 -7 -211 -7 -274 l0
-116 75 -74 75 -74 0 347 c0 334 -1 348 -20 367 -25 25 -74 26 -98 2z"/>
<path d="M3880 7570 c-19 -19 -20 -33 -20 -418 l0 -398 70 -69 70 -69 0 467
c0 454 -1 468 -20 487 -11 11 -33 20 -50 20 -17 0 -39 -9 -50 -20z"/>
<path d="M4120 7570 c-19 -19 -20 -33 -20 -538 l0 -518 70 -69 70 -69 0 585 0
586 -23 21 c-29 27 -71 28 -97 2z"/>
<path d="M4362 7574 l-22 -15 0 -609 c0 -346 -4 -619 -9 -633 -8 -22 0 -33 80
-113 l89 -89 0 40 c0 22 -5 344 -10 714 -10 672 -10 675 -32 698 -25 27 -64
30 -96 7z"/>
<path d="M3870 5298 c0 -235 -11 -400 -66 -953 -64 -658 -75 -808 -81 -1091
-8 -402 12 -572 88 -731 46 -97 98 -146 178 -170 132 -38 258 47 321 215 56
149 75 339 67 682 -7 283 -15 398 -77 1030 -44 446 -70 756 -70 828 l0 47
-180 180 -180 180 0 -217z"/>
<path d="M5452 3748 c-15 -212 -16 -545 -2 -693 38 -406 150 -685 286 -711 42
-8 104 26 138 75 94 136 147 364 167 720 l10 194 -288 292 c-158 161 -291 293
-294 293 -3 1 -11 -76 -17 -170z"/>
<path d="M160 2292 c0 -5 7 -17 15 -28 13 -17 14 -17 15 -1 0 14 9 17 50 17
28 0 50 5 50 10 0 6 -28 10 -65 10 -36 0 -65 -4 -65 -8z"/>
<path d="M160 2211 c0 -22 5 -43 10 -46 6 -4 10 7 10 25 0 28 2 31 23 24 12
-3 34 -13 49 -20 31 -16 38 -17 38 -5 0 7 -108 61 -124 61 -3 0 -6 -18 -6 -39z"/>
<path d="M177 2132 c-22 -24 -21 -35 1 -55 25 -22 75 -21 95 1 23 25 21 38 -5
56 -30 21 -71 20 -91 -2z m77 -8 c24 -9 19 -33 -8 -40 -31 -7 -66 3 -66 21 0
21 41 32 74 19z"/>
<path d="M188 2033 c-19 -5 -34 -45 -23 -62 11 -18 22 -12 21 12 -1 32 34 34
64 2 32 -34 40 -32 40 15 0 44 -20 56 -21 13 0 -16 -3 -22 -6 -15 -7 17 -54
39 -75 35z"/>
<path d="M176 1924 c-19 -18 -20 -28 -6 -55 19 -35 70 -17 70 26 1 18 3 17 18
-7 17 -29 32 -36 32 -17 0 18 -57 69 -79 69 -11 0 -27 -7 -35 -16z m42 -26
c-2 -12 -9 -23 -15 -26 -19 -6 -29 28 -12 39 23 14 31 10 27 -13z"/>
<path d="M160 1795 c0 -25 5 -45 10 -45 6 0 10 14 10 31 0 27 3 30 23 23 12
-3 34 -13 49 -20 31 -16 38 -17 38 -5 0 7 -108 61 -124 61 -3 0 -6 -20 -6 -45z"/>
<path d="M160 1706 c0 -24 5 -36 14 -36 8 0 20 -2 28 -5 8 -3 18 6 25 26 14
37 38 34 38 -4 -1 -15 3 -27 7 -27 16 0 21 31 9 56 -15 33 -51 29 -69 -9 -14
-29 -32 -28 -32 3 0 10 -4 22 -10 25 -6 4 -10 -8 -10 -29z"/>
<path d="M160 1611 c0 -22 5 -43 10 -46 6 -4 10 7 10 25 0 28 2 31 23 24 12
-3 34 -13 49 -20 31 -16 38 -17 38 -5 0 7 -108 61 -124 61 -3 0 -6 -18 -6 -39z"/>
<path d="M270 1523 l0 -27 -20 22 c-29 31 -78 30 -86 -2 -6 -25 1 -46 15 -46
4 0 7 10 7 23 -1 32 34 34 64 2 32 -34 40 -32 40 15 0 22 -4 40 -10 40 -5 0
-10 -12 -10 -27z"/>
<path d="M196 1451 c-4 -6 -12 -9 -17 -6 -5 4 -9 2 -9 -4 0 -5 6 -12 13 -15 9
-5 9 -7 0 -12 -10 -4 -9 -9 2 -20 8 -9 20 -12 26 -8 6 3 14 1 18 -5 5 -8 15
-9 31 -3 19 7 21 10 7 15 -23 9 -22 28 1 20 12 -4 11 0 -7 17 -17 17 -25 20
-31 10 -6 -9 -10 -8 -17 5 -7 12 -12 14 -17 6z m39 -41 c-3 -5 -10 -10 -16
-10 -5 0 -9 5 -9 10 0 6 7 10 16 10 8 0 12 -4 9 -10z"/>
<path d="M140 1280 c0 -6 38 -10 95 -10 57 0 95 4 95 10 0 6 -38 10 -95 10
-57 0 -95 -4 -95 -10z"/>
<path d="M261 1189 c-22 -18 -25 -19 -42 -3 -11 10 -22 14 -27 10 -4 -4 4 -16
17 -27 l23 -19 -46 0 c-34 0 -46 -4 -46 -15 0 -12 15 -15 75 -15 60 0 75 3 75
15 0 9 -9 15 -22 15 l-23 0 24 19 c13 10 22 23 20 29 -2 6 -14 3 -28 -9z"/>
<path d="M190 1081 c0 -27 27 -51 55 -51 24 0 45 25 45 54 0 25 -18 19 -22 -6
-2 -17 -10 -23 -28 -23 -18 0 -26 6 -28 23 -4 27 -22 30 -22 3z"/>
<path d="M206 994 c-19 -18 -20 -28 -6 -55 21 -39 90 -16 90 30 0 16 -30 41
-50 41 -10 0 -26 -7 -34 -16z m59 -29 c0 -22 -31 -33 -47 -17 -17 17 -1 44 24
40 15 -2 23 -10 23 -23z"/>
<path d="M190 900 c0 -5 -7 -10 -15 -10 -8 0 -15 -4 -15 -10 0 -5 6 -10 14
-10 8 0 17 -6 20 -12 5 -10 7 -10 12 0 3 6 21 12 40 12 34 0 56 22 39 38 -4 4
-10 1 -12 -5 -5 -15 -63 -18 -63 -3 0 6 -4 10 -10 10 -5 0 -10 -4 -10 -10z"/>
<path d="M212 810 c-19 -34 -35 -34 -40 -2 -5 30 -22 28 -22 -2 0 -50 54 -61
77 -16 17 34 38 32 38 -3 -1 -32 18 -31 23 2 8 53 -49 69 -76 21z"/>
<path d="M200 675 c-22 -26 3 -65 40 -65 35 0 58 36 45 67 -7 16 -9 15 -13 -7
-6 -40 -22 -48 -22 -12 0 25 -4 32 -19 32 -10 0 -24 -7 -31 -15z m30 -26 c0
-11 -4 -17 -10 -14 -5 3 -10 13 -10 21 0 8 5 14 10 14 6 0 10 -9 10 -21z"/>
<path d="M197 561 c-8 -22 -18 -31 -34 -31 -14 0 -23 -6 -23 -15 0 -23 138
-22 147 2 10 26 -19 68 -50 71 -24 3 -30 -2 -40 -27z m57 3 c28 -11 18 -34
-14 -34 -18 0 -30 5 -30 13 0 25 15 32 44 21z"/>
<path d="M206 464 c-19 -18 -20 -28 -6 -55 21 -39 90 -16 90 30 0 16 -30 41
-50 41 -10 0 -26 -7 -34 -16z m59 -29 c0 -22 -31 -33 -47 -17 -17 17 -1 44 24
40 15 -2 23 -10 23 -23z"/>
<path d="M140 350 c0 -5 11 -10 25 -10 15 0 25 -6 25 -14 0 -45 73 -62 92 -22
20 45 6 56 -72 56 -40 0 -70 -4 -70 -10z m128 -27 c-2 -12 -12 -18 -28 -18
-16 0 -26 6 -28 18 -3 13 3 17 28 17 25 0 31 -4 28 -17z"/>
<path d="M220 246 c-36 -13 -66 -29 -68 -37 -1 -9 20 -21 68 -35 38 -12 70
-17 70 -12 0 6 -9 12 -20 15 -14 4 -20 14 -20 34 0 22 5 29 20 29 11 0 20 7
20 15 0 8 -1 15 -2 14 -2 0 -32 -11 -68 -23z m8 -51 c-7 -7 -48 7 -48 15 0 15
45 16 48 2 2 -8 2 -15 0 -17z"/>
</g>
</svg>
